<svg width="669" height="669" xmlns="http://www.w3.org/2000/svg" xmlns:xlink="http://www.w3.org/1999/xlink" xml:space="preserve" overflow="hidden"><g transform="translate(-1466 -783)"><g><g><g><g><path d="M618.9 526.119C627.663 510.085 627.05 490.561 617.3 475.108L532.983 336.566 521.145 343.77 606.452 483.926C613.306 495.021 613.272 509.045 606.362 520.106 599.58 530.576 587.871 536.802 575.398 536.572L315.452 536.572C315.414 536.571 315.384 536.54 315.384 536.502 315.384 536.484 315.391 536.466 315.404 536.454L365.805 486.052 356.01 476.258 288.769 543.499 356.01 610.74 365.805 600.945 315.404 550.544C315.377 550.517 315.378 550.472 315.405 550.446 315.418 550.433 315.434 550.426 315.452 550.426L576.867 550.426C594.25 550.55 610.337 541.247 618.9 526.119Z" fill="#4EA72E" fill-rule="nonzero" fill-opacity="1" transform="matrix(1 0 0 1 1469 786)"/><path d="M47.0141 525.239C56.1483 541.08 73.1541 550.722 91.4375 550.426L252.367 550.426 252.367 536.572 91.0011 536.572C78.5295 536.804 66.8224 530.578 60.0439 520.106 53.1279 509.047 53.093 495.02 59.9539 483.926L189.802 270.62C189.819 270.586 189.86 270.572 189.895 270.588 189.909 270.595 189.92 270.606 189.927 270.62L207.729 338.353 221.126 334.827 196.882 242.697 104.71 266.942 108.229 280.339 178.816 261.788C178.852 261.779 178.89 261.801 178.9 261.837 178.905 261.856 178.902 261.876 178.892 261.892L48.1155 476.722C38.9784 491.498 38.557 510.063 47.0141 525.239Z" fill="#4EA72E" fill-rule="nonzero" fill-opacity="1" transform="matrix(1 0 0 1 1469 786)"/><path d="M410.402 277.575 503.917 301.557 527.906 208.041 514.481 204.577 496.18 275.885C496.168 275.921 496.129 275.941 496.093 275.929 496.072 275.922 496.055 275.906 496.048 275.885L374.623 76.3849C360.7 53.509 330.868 46.2517 307.993 60.1752 301.371 64.2052 295.813 69.764 291.783 76.3849L214.947 202.645 226.786 209.849 302.81 84.9537C308.797 74.6601 319.458 67.9639 331.329 67.0403 344.078 66.3031 356.186 72.6845 362.785 83.6168L483.469 281.891C483.489 281.923 483.479 281.965 483.447 281.986 483.431 281.997 483.411 281.999 483.392 281.995L413.838 264.15Z" fill="#4EA72E" fill-rule="nonzero" fill-opacity="1" transform="matrix(1 0 0 1 1469 786)"/></g></g></g><g><g><g><path d="M201.875 142.5C201.875 107.258 175.72 91.4375 148.859 77.1875 175.72 62.9375 201.875 47.117 201.875 11.875L195.937 11.875C196.019 19.0128 194.616 26.0896 191.817 32.6562L93.1831 32.6562C90.3842 26.0896 88.9809 19.0128 89.0625 11.875L83.125 11.875C83.125 47.117 109.28 62.9375 136.141 77.1875 109.28 91.4375 83.125 107.258 83.125 142.5 83.125 177.742 109.28 193.562 136.141 207.812 109.28 222.062 83.125 237.883 83.125 273.125L89.0625 273.125C88.9809 265.987 90.3842 258.91 93.1831 252.344L191.817 252.344C194.616 258.91 196.019 265.987 195.937 273.125L201.875 273.125C201.875 237.883 175.72 222.062 148.859 207.812 175.72 193.562 201.875 177.742 201.875 142.5ZM96.2172 38.5937 188.783 38.5937C179.226 54.2331 161.307 63.9261 142.5 73.8298 123.693 63.9261 105.774 54.2331 96.2172 38.5937ZM142.5 80.5452C161.307 90.4489 179.226 100.139 188.783 115.781L96.2172 115.781C105.774 100.142 123.693 90.4489 142.5 80.5452ZM93.1831 121.719 191.817 121.719C197.311 135.028 197.311 149.972 191.817 163.281L93.1831 163.281C87.6889 149.972 87.6889 135.028 93.1831 121.719ZM188.777 246.406 96.2172 246.406C105.774 230.767 123.693 221.074 142.5 211.17 161.307 221.074 179.226 230.767 188.783 246.406ZM142.5 204.455C123.693 194.551 105.774 184.858 96.2172 169.219L188.783 169.219C179.226 184.858 161.307 194.551 142.5 204.455Z" fill="#404040" fill-rule="nonzero" fill-opacity="1" transform="matrix(1 0 0 1.27368 1661 932)"/></g></g></g></g></g></svg>