<svg width="669" height="669" xmlns="http://www.w3.org/2000/svg" xmlns:xlink="http://www.w3.org/1999/xlink" xml:space="preserve" overflow="hidden"><g transform="translate(-435 -1443)"><g><g><g><g><path d="M618.9 526.119C627.663 510.085 627.05 490.561 617.3 475.108L532.983 336.566 521.145 343.77 606.452 483.926C613.306 495.021 613.272 509.045 606.362 520.106 599.58 530.576 587.871 536.802 575.398 536.572L315.452 536.572C315.414 536.571 315.384 536.54 315.384 536.502 315.384 536.484 315.391 536.466 315.404 536.454L365.805 486.052 356.01 476.258 288.769 543.499 356.01 610.74 365.805 600.945 315.404 550.544C315.377 550.517 315.378 550.472 315.405 550.446 315.418 550.433 315.434 550.426 315.452 550.426L576.867 550.426C594.25 550.55 610.337 541.247 618.9 526.119Z" fill="#92D050" fill-rule="nonzero" fill-opacity="1" transform="matrix(1 0 0 1 437 1445)"/><path d="M47.0141 525.239C56.1483 541.08 73.1541 550.722 91.4375 550.426L252.367 550.426 252.367 536.572 91.0011 536.572C78.5295 536.804 66.8224 530.578 60.0439 520.106 53.1279 509.047 53.093 495.02 59.9539 483.926L189.802 270.62C189.819 270.586 189.86 270.572 189.895 270.588 189.909 270.595 189.92 270.606 189.927 270.62L207.729 338.353 221.126 334.827 196.882 242.697 104.71 266.942 108.229 280.339 178.816 261.788C178.852 261.779 178.89 261.801 178.9 261.837 178.905 261.856 178.902 261.876 178.892 261.892L48.1155 476.722C38.9784 491.498 38.557 510.063 47.0141 525.239Z" fill="#92D050" fill-rule="nonzero" fill-opacity="1" transform="matrix(1 0 0 1 437 1445)"/><path d="M410.402 277.575 503.917 301.557 527.906 208.041 514.481 204.577 496.18 275.885C496.168 275.921 496.129 275.941 496.093 275.929 496.072 275.922 496.055 275.906 496.048 275.885L374.623 76.3849C360.7 53.509 330.868 46.2517 307.993 60.1752 301.371 64.2052 295.813 69.764 291.783 76.3849L214.947 202.645 226.786 209.849 302.81 84.9537C308.797 74.6601 319.458 67.9639 331.329 67.0403 344.078 66.3031 356.186 72.6845 362.785 83.6168L483.469 281.891C483.489 281.923 483.479 281.965 483.447 281.986 483.431 281.997 483.411 281.999 483.392 281.995L413.838 264.15Z" fill="#92D050" fill-rule="nonzero" fill-opacity="1" transform="matrix(1 0 0 1 437 1445)"/></g></g></g><g><g><g><path d="M202.583 143C202.583 107.634 176.337 91.7583 149.381 77.4583 176.337 63.1583 202.583 47.2824 202.583 11.9167L196.625 11.9167C196.707 19.0795 195.299 26.1812 192.49 32.7708L93.5101 32.7708C90.7013 26.1812 89.2931 19.0795 89.375 11.9167L83.4167 11.9167C83.4167 47.2824 109.663 63.1583 136.619 77.4583 109.663 91.7583 83.4167 107.634 83.4167 143 83.4167 178.366 109.663 194.242 136.619 208.542 109.663 222.842 83.4167 238.718 83.4167 274.083L89.375 274.083C89.2931 266.921 90.7013 259.819 93.5101 253.229L192.49 253.229C195.299 259.819 196.707 266.921 196.625 274.083L202.583 274.083C202.583 238.718 176.337 222.842 149.381 208.542 176.337 194.242 202.583 178.366 202.583 143ZM96.5548 38.7292 189.445 38.7292C179.855 54.4234 161.873 64.1504 143 74.0889 124.127 64.1504 106.145 54.4234 96.5548 38.7292ZM143 80.8278C161.873 90.7663 179.855 100.49 189.445 116.188L96.5548 116.188C106.145 100.493 124.127 90.7663 143 80.8278ZM93.5101 122.146 192.49 122.146C198.003 135.502 198.003 150.498 192.49 163.854L93.5101 163.854C87.9965 150.498 87.9965 135.502 93.5101 122.146ZM189.439 247.271 96.5548 247.271C106.145 231.577 124.127 221.85 143 211.911 161.873 221.85 179.855 231.577 189.445 247.271ZM143 205.172C124.127 195.234 106.145 185.507 96.5548 169.812L189.445 169.812C179.855 185.507 161.873 195.234 143 205.172Z" fill="#FFFFFF" fill-rule="nonzero" fill-opacity="1" transform="matrix(1 0 0 1.26923 628 1591)"/></g></g></g></g></g></svg>